<svg width="16" height="16" viewBox="0 0 16 16" fill="none" xmlns="http://www.w3.org/2000/svg">
<path d="M6 9.25C6 9.08585 5.96767 8.9233 5.90485 8.77165C5.84203 8.61999 5.74996 8.48219 5.63388 8.36612C5.51781 8.25004 5.38001 8.15797 5.22835 8.09515C5.0767 8.03233 4.91415 8 4.75 8C4.65853 7.99997 4.56883 7.97486 4.49064 7.92739C4.41246 7.87992 4.34879 7.81191 4.30658 7.73077C4.26436 7.64962 4.24522 7.55845 4.25122 7.46718C4.25722 7.37591 4.28815 7.28804 4.34062 7.21313L5.53937 5.5H3.5C3.36739 5.5 3.24021 5.44732 3.14645 5.35355C3.05268 5.25979 3 5.13261 3 5C3 4.86739 3.05268 4.74021 3.14645 4.64645C3.24021 4.55268 3.36739 4.5 3.5 4.5H6.5C6.59147 4.50003 6.68117 4.52514 6.75936 4.57261C6.83754 4.62008 6.90121 4.68809 6.94342 4.76923C6.98564 4.85038 7.00479 4.94155 6.99878 5.03282C6.99278 5.12409 6.96185 5.21196 6.90938 5.28687L5.59688 7.16187C6.08268 7.35682 6.4853 7.71505 6.73543 8.17488C6.98556 8.63471 7.06753 9.16736 6.96724 9.68112C6.86695 10.1949 6.59066 10.6576 6.18595 10.9896C5.78125 11.3216 5.27345 11.5021 4.75 11.5C4.45053 11.5009 4.15394 11.4416 3.87788 11.3255C3.60182 11.2095 3.35194 11.039 3.14313 10.8244C3.09427 10.7782 3.05524 10.7226 3.02837 10.6609C3.0015 10.5992 2.98735 10.5328 2.98676 10.4655C2.98617 10.3983 2.99915 10.3316 3.02494 10.2695C3.05072 10.2074 3.08876 10.1511 3.1368 10.104C3.18484 10.057 3.24188 10.0201 3.30451 9.99555C3.36714 9.97103 3.43407 9.95941 3.5013 9.96137C3.56853 9.96333 3.63467 9.97883 3.69576 10.0069C3.75686 10.0351 3.81166 10.0752 3.85687 10.125C4.03065 10.3025 4.25336 10.4241 4.49659 10.4745C4.73982 10.5249 4.99253 10.5016 5.22249 10.4077C5.45245 10.3138 5.64922 10.1536 5.7877 9.94736C5.92618 9.74117 6.00009 9.49838 6 9.25ZM10 4.5C10.9283 4.5 11.8185 4.86875 12.4749 5.52513C13.1313 6.1815 13.5 7.07174 13.5 8C13.5 8.92826 13.1313 9.8185 12.4749 10.4749C11.8185 11.1313 10.9283 11.5 10 11.5H8.5C8.36739 11.5 8.24021 11.4473 8.14645 11.3536C8.05268 11.2598 8 11.1326 8 11V5C8 4.86739 8.05268 4.74021 8.14645 4.64645C8.24021 4.55268 8.36739 4.5 8.5 4.5H10ZM10 5.5H9V10.5H10C10.663 10.5 11.2989 10.2366 11.7678 9.76777C12.2366 9.29893 12.5 8.66304 12.5 8C12.5 7.33696 12.2366 6.70107 11.7678 6.23223C11.2989 5.76339 10.663 5.5 10 5.5ZM2 3.5H14C14.1326 3.5 14.2598 3.44732 14.3536 3.35355C14.4473 3.25979 14.5 3.13261 14.5 3C14.5 2.86739 14.4473 2.74021 14.3536 2.64645C14.2598 2.55268 14.1326 2.5 14 2.5H2C1.86739 2.5 1.74021 2.55268 1.64645 2.64645C1.55268 2.74021 1.5 2.86739 1.5 3C1.5 3.13261 1.55268 3.25979 1.64645 3.35355C1.74021 3.44732 1.86739 3.5 2 3.5ZM14 12.5H2C1.86739 12.5 1.74021 12.5527 1.64645 12.6464C1.55268 12.7402 1.5 12.8674 1.5 13C1.5 13.1326 1.55268 13.2598 1.64645 13.3536C1.74021 13.4473 1.86739 13.5 2 13.5H14C14.1326 13.5 14.2598 13.4473 14.3536 13.3536C14.4473 13.2598 14.5 13.1326 14.5 13C14.5 12.8674 14.4473 12.7402 14.3536 12.6464C14.2598 12.5527 14.1326 12.5 14 12.5Z" fill="#A1A1A1"/>
</svg>
