<svg width="20" height="20" viewBox="0 0 20 20" fill="none" xmlns="http://www.w3.org/2000/svg">
<path d="M17.5 10.0001C17.5 10.1659 17.4342 10.3248 17.3169 10.442C17.1997 10.5593 17.0408 10.6251 16.875 10.6251H4.6336L9.19219 15.1829C9.25026 15.241 9.29632 15.3099 9.32775 15.3858C9.35918 15.4617 9.37535 15.543 9.37535 15.6251C9.37535 15.7072 9.35918 15.7885 9.32775 15.8644C9.29632 15.9403 9.25026 16.0092 9.19219 16.0673C9.13412 16.1254 9.06518 16.1714 8.98931 16.2028C8.91344 16.2343 8.83213 16.2505 8.75 16.2505C8.66788 16.2505 8.58656 16.2343 8.51069 16.2028C8.43482 16.1714 8.36588 16.1254 8.30782 16.0673L2.68282 10.4423C2.62471 10.3842 2.57861 10.3153 2.54715 10.2394C2.5157 10.1636 2.49951 10.0822 2.49951 10.0001C2.49951 9.91797 2.5157 9.83664 2.54715 9.76077C2.57861 9.68489 2.62471 9.61596 2.68282 9.55792L8.30782 3.93292C8.42509 3.81564 8.58415 3.74976 8.75 3.74976C8.91586 3.74976 9.07492 3.81564 9.19219 3.93292C9.30947 4.05019 9.37535 4.20925 9.37535 4.3751C9.37535 4.54096 9.30947 4.70002 9.19219 4.81729L4.6336 9.3751H16.875C17.0408 9.3751 17.1997 9.44095 17.3169 9.55816C17.4342 9.67537 17.5 9.83434 17.5 10.0001Z" fill="black"/>
</svg>
