<svg width="13" height="10" viewBox="0 0 13 10" fill="none" xmlns="http://www.w3.org/2000/svg">
<path d="M12.3538 1.60378L4.35378 9.60378C4.30735 9.65027 4.2522 9.68715 4.1915 9.71231C4.13081 9.73748 4.06574 9.75043 4.00003 9.75043C3.93433 9.75043 3.86926 9.73748 3.80856 9.71231C3.74786 9.68715 3.69272 9.65027 3.64628 9.60378L0.146284 6.10378C0.0524635 6.00996 -0.000244141 5.88272 -0.000244141 5.75003C-0.000244141 5.61735 0.0524635 5.4901 0.146284 5.39628C0.240104 5.30246 0.367352 5.24976 0.500034 5.24976C0.632716 5.24976 0.759964 5.30246 0.853784 5.39628L4.00003 8.54316L11.6463 0.896284C11.7401 0.802463 11.8674 0.749756 12 0.749756C12.1327 0.749756 12.26 0.802463 12.3538 0.896284C12.4476 0.990104 12.5003 1.11735 12.5003 1.25003C12.5003 1.38272 12.4476 1.50996 12.3538 1.60378Z" fill="white"/>
</svg>
