<svg width="20" height="20" viewBox="0 0 20 20" fill="none" xmlns="http://www.w3.org/2000/svg">
<path d="M17.293 8.1336C17.1295 8.16096 16.9836 8.25213 16.8873 8.38707C16.7911 8.52201 16.7523 8.68965 16.7797 8.85313C16.8432 9.23213 16.875 9.61574 16.875 10C16.8765 11.683 16.2579 13.3075 15.1375 14.5633C14.4404 13.5532 13.4603 12.7717 12.3203 12.3172C12.9327 11.8349 13.3795 11.1737 13.5987 10.4257C13.8179 9.67767 13.7985 8.87992 13.5433 8.1434C13.2881 7.40688 12.8097 6.7682 12.1746 6.31617C11.5396 5.86415 10.7795 5.62124 10 5.62124C9.22051 5.62124 8.4604 5.86415 7.82536 6.31617C7.19033 6.7682 6.71193 7.40688 6.45671 8.1434C6.20149 8.87992 6.18212 9.67767 6.40131 10.4257C6.62049 11.1737 7.06733 11.8349 7.67969 12.3172C6.5397 12.7717 5.55956 13.5532 4.8625 14.5633C3.98338 13.5726 3.40912 12.3491 3.20879 11.0399C3.00845 9.73064 3.19057 8.3914 3.73323 7.18319C4.2759 5.97498 5.15602 4.94924 6.26775 4.22931C7.37949 3.50938 8.67552 3.12591 10 3.12501C10.3843 3.12495 10.7679 3.15683 11.1469 3.22032C11.3096 3.246 11.4759 3.20638 11.6096 3.11008C11.7433 3.01378 11.8335 2.86859 11.8607 2.70609C11.8879 2.54359 11.8498 2.37693 11.7548 2.24236C11.6597 2.10779 11.5154 2.0162 11.3531 1.98751C9.65582 1.70197 7.91167 1.96324 6.37253 2.73358C4.83338 3.50393 3.57888 4.74348 2.79015 6.27329C2.00141 7.80309 1.71926 9.54397 1.98444 11.2446C2.24961 12.9452 3.04838 14.5175 4.26543 15.7346C5.48247 16.9516 7.05481 17.7504 8.75542 18.0156C10.456 18.2807 12.1969 17.9986 13.7267 17.2099C15.2565 16.4211 16.4961 15.1666 17.2664 13.6275C18.0368 12.0883 18.298 10.3442 18.0125 8.64688C17.9851 8.48341 17.894 8.33749 17.759 8.24123C17.6241 8.14498 17.4565 8.10626 17.293 8.1336ZM7.5 9.37501C7.5 8.88056 7.64662 8.39721 7.92133 7.98608C8.19603 7.57496 8.58648 7.25453 9.04329 7.06531C9.50011 6.87609 10.0028 6.82658 10.4877 6.92305C10.9727 7.01951 11.4181 7.25761 11.7678 7.60724C12.1174 7.95687 12.3555 8.40233 12.452 8.88728C12.5484 9.37224 12.4989 9.8749 12.3097 10.3317C12.1205 10.7885 11.8 11.179 11.3889 11.4537C10.9778 11.7284 10.4945 11.875 10 11.875C9.33696 11.875 8.70108 11.6116 8.23223 11.1428C7.76339 10.6739 7.5 10.0381 7.5 9.37501ZM5.7875 15.4297C6.23964 14.7226 6.86251 14.1406 7.59869 13.7376C8.33488 13.3345 9.16069 13.1232 10 13.1232C10.8393 13.1232 11.6651 13.3345 12.4013 13.7376C13.1375 14.1406 13.7604 14.7226 14.2125 15.4297C13.0081 16.3664 11.5258 16.875 10 16.875C8.4742 16.875 6.99193 16.3664 5.7875 15.4297ZM18.5672 3.5672L16.0672 6.0672C16.0091 6.12531 15.9402 6.17141 15.8643 6.20286C15.7885 6.23431 15.7071 6.2505 15.625 6.2505C15.5429 6.2505 15.4615 6.23431 15.3857 6.20286C15.3098 6.17141 15.2409 6.12531 15.1828 6.0672L13.9328 4.8172C13.8747 4.75913 13.8287 4.69019 13.7973 4.61432C13.7658 4.53845 13.7497 4.45713 13.7497 4.37501C13.7497 4.29289 13.7658 4.21157 13.7973 4.1357C13.8287 4.05983 13.8747 3.99089 13.9328 3.93282C14.0501 3.81555 14.2091 3.74966 14.375 3.74966C14.4571 3.74966 14.5384 3.76584 14.6143 3.79726C14.6902 3.82869 14.7591 3.87475 14.8172 3.93282L15.625 4.74142L17.6828 2.68282C17.7409 2.62475 17.8098 2.57869 17.8857 2.54726C17.9616 2.51584 18.0429 2.49966 18.125 2.49966C18.2071 2.49966 18.2884 2.51584 18.3643 2.54726C18.4402 2.57869 18.5091 2.62475 18.5672 2.68282C18.6253 2.74089 18.6713 2.80983 18.7027 2.8857C18.7342 2.96157 18.7503 3.04289 18.7503 3.12501C18.7503 3.20713 18.7342 3.28845 18.7027 3.36432C18.6713 3.44019 18.6253 3.50913 18.5672 3.5672Z" fill="#505152"/>
</svg>
