<svg width="20" height="20" viewBox="0 0 20 20" fill="none" xmlns="http://www.w3.org/2000/svg">
<path d="M17.2932 8.1336C17.1297 8.16096 16.9838 8.25213 16.8875 8.38707C16.7913 8.52201 16.7525 8.68965 16.7799 8.85313C16.8434 9.23213 16.8752 9.61574 16.8752 10C16.8767 11.683 16.2581 13.3075 15.1377 14.5633C14.4406 13.5532 13.4605 12.7717 12.3205 12.3172C12.9329 11.8349 13.3797 11.1737 13.5989 10.4257C13.8181 9.67767 13.7987 8.87992 13.5435 8.1434C13.2883 7.40688 12.8099 6.7682 12.1748 6.31617C11.5398 5.86415 10.7797 5.62124 10.0002 5.62124C9.22072 5.62124 8.4606 5.86415 7.82556 6.31617C7.19053 6.7682 6.71213 7.40688 6.45691 8.1434C6.20169 8.87992 6.18232 9.67767 6.40151 10.4257C6.62069 11.1737 7.06754 11.8349 7.67989 12.3172C6.53991 12.7717 5.55976 13.5532 4.8627 14.5633C3.98358 13.5726 3.40932 12.3491 3.20899 11.0399C3.00865 9.73064 3.19077 8.3914 3.73344 7.18319C4.2761 5.97498 5.15622 4.94924 6.26795 4.22931C7.37969 3.50938 8.67572 3.12591 10.0002 3.12501C10.3845 3.12495 10.7681 3.15683 11.1471 3.22032C11.3098 3.246 11.4761 3.20638 11.6098 3.11008C11.7435 3.01378 11.8337 2.86859 11.8609 2.70609C11.8881 2.54359 11.85 2.37693 11.755 2.24236C11.6599 2.10779 11.5156 2.0162 11.3533 1.98751C9.65602 1.70197 7.91188 1.96324 6.37273 2.73358C4.83359 3.50393 3.57908 4.74348 2.79035 6.27329C2.00161 7.80309 1.71946 9.54397 1.98464 11.2446C2.24981 12.9452 3.04859 14.5175 4.26563 15.7346C5.48268 16.9516 7.05501 17.7504 8.75563 18.0156C10.4562 18.2807 12.1971 17.9986 13.7269 17.2099C15.2567 16.4211 16.4963 15.1666 17.2666 13.6275C18.037 12.0883 18.2982 10.3442 18.0127 8.64688C17.9853 8.48341 17.8942 8.33749 17.7592 8.24123C17.6243 8.14498 17.4567 8.10626 17.2932 8.1336ZM7.5002 9.37501C7.5002 8.88056 7.64683 8.39721 7.92153 7.98608C8.19623 7.57496 8.58668 7.25453 9.0435 7.06531C9.50031 6.87609 10.003 6.82658 10.4879 6.92305C10.9729 7.01951 11.4183 7.25761 11.768 7.60724C12.1176 7.95687 12.3557 8.40233 12.4522 8.88728C12.5486 9.37224 12.4991 9.8749 12.3099 10.3317C12.1207 10.7885 11.8003 11.179 11.3891 11.4537C10.978 11.7284 10.4947 11.875 10.0002 11.875C9.33716 11.875 8.70128 11.6116 8.23244 11.1428C7.7636 10.6739 7.5002 10.0381 7.5002 9.37501ZM5.7877 15.4297C6.23984 14.7226 6.86271 14.1406 7.59889 13.7376C8.33508 13.3345 9.16089 13.1232 10.0002 13.1232C10.8395 13.1232 11.6653 13.3345 12.4015 13.7376C13.1377 14.1406 13.7606 14.7226 14.2127 15.4297C13.0083 16.3664 11.526 16.875 10.0002 16.875C8.4744 16.875 6.99213 16.3664 5.7877 15.4297ZM18.5674 3.5672L16.0674 6.0672C16.0093 6.12531 15.9404 6.17141 15.8645 6.20286C15.7887 6.23431 15.7073 6.2505 15.6252 6.2505C15.5431 6.2505 15.4617 6.23431 15.3859 6.20286C15.31 6.17141 15.2411 6.12531 15.183 6.0672L13.933 4.8172C13.8749 4.75913 13.8289 4.69019 13.7975 4.61432C13.766 4.53845 13.7499 4.45713 13.7499 4.37501C13.7499 4.29289 13.766 4.21157 13.7975 4.1357C13.8289 4.05983 13.8749 3.99089 13.933 3.93282C14.0503 3.81555 14.2094 3.74966 14.3752 3.74966C14.4573 3.74966 14.5386 3.76584 14.6145 3.79726C14.6904 3.82869 14.7593 3.87475 14.8174 3.93282L15.6252 4.74142L17.683 2.68282C17.7411 2.62475 17.81 2.57869 17.8859 2.54726C17.9618 2.51584 18.0431 2.49966 18.1252 2.49966C18.2073 2.49966 18.2886 2.51584 18.3645 2.54726C18.4404 2.57869 18.5093 2.62475 18.5674 2.68282C18.6255 2.74089 18.6715 2.80983 18.7029 2.8857C18.7344 2.96157 18.7506 3.04289 18.7506 3.12501C18.7506 3.20713 18.7344 3.28845 18.7029 3.36432C18.6715 3.44019 18.6255 3.50913 18.5674 3.5672Z" fill="white"/>
</svg>
