<svg width="20" height="20" viewBox="0 0 20 20" fill="none" xmlns="http://www.w3.org/2000/svg">
<path d="M16.0675 15.1827C16.1256 15.2407 16.1717 15.3097 16.2031 15.3855C16.2345 15.4614 16.2507 15.5427 16.2507 15.6249C16.2507 15.707 16.2345 15.7883 16.2031 15.8642C16.1717 15.94 16.1256 16.009 16.0675 16.067C16.0095 16.1251 15.9405 16.1712 15.8647 16.2026C15.7888 16.234 15.7075 16.2502 15.6253 16.2502C15.5432 16.2502 15.4619 16.234 15.386 16.2026C15.3102 16.1712 15.2412 16.1251 15.1832 16.067L10.0003 10.8835L4.81753 16.067C4.70026 16.1843 4.5412 16.2502 4.37535 16.2502C4.2095 16.2502 4.05044 16.1843 3.93316 16.067C3.81588 15.9498 3.75 15.7907 3.75 15.6249C3.75 15.459 3.81588 15.2999 3.93316 15.1827L9.11675 9.99986L3.93316 4.81705C3.81588 4.69977 3.75 4.54071 3.75 4.37486C3.75 4.20901 3.81588 4.04995 3.93316 3.93267C4.05044 3.8154 4.2095 3.74951 4.37535 3.74951C4.5412 3.74951 4.70026 3.8154 4.81753 3.93267L10.0003 9.11627L15.1832 3.93267C15.3004 3.8154 15.4595 3.74951 15.6253 3.74951C15.7912 3.74951 15.9503 3.8154 16.0675 3.93267C16.1848 4.04995 16.2507 4.20901 16.2507 4.37486C16.2507 4.54071 16.1848 4.69977 16.0675 4.81705L10.8839 9.99986L16.0675 15.1827Z" fill="black"/>
</svg>
