<svg width="21" height="21" viewBox="0 0 21 21" fill="none" xmlns="http://www.w3.org/2000/svg">
<path d="M1.94227 1.94247C1.83113 2.05359 1.76355 2.2009 1.75183 2.35762C1.74011 2.51434 1.78502 2.67006 1.87839 2.79647L1.94227 2.86997L5.47202 6.4006C3.75171 7.60768 2.52331 9.3936 2.01139 11.4318C1.972 11.5997 2.00022 11.7763 2.08997 11.9235C2.17972 12.0706 2.32377 12.1766 2.49101 12.2184C2.65825 12.2603 2.83523 12.2346 2.98371 12.147C3.13219 12.0595 3.24024 11.917 3.28452 11.7503C3.73935 9.94121 4.85741 8.36905 6.41702 7.3456L8.00077 8.92935C7.36814 9.5904 7.01953 10.4729 7.02962 11.3879C7.03972 12.3028 7.4077 13.1774 8.05476 13.8243C8.70181 14.4713 9.57649 14.8391 10.4914 14.849C11.4064 14.859 12.2888 14.5102 12.9498 13.8775L18.1289 19.0575C18.246 19.1749 18.4032 19.2436 18.5689 19.2499C18.7346 19.2561 18.8965 19.1994 19.0221 19.0911C19.1477 18.9828 19.2276 18.8309 19.2458 18.6661C19.2641 18.5013 19.2192 18.3357 19.1203 18.2026L19.0564 18.1291L13.7075 12.7793L13.7084 12.7776L12.6584 11.7293L10.1471 9.2181H10.1489L7.62889 6.70072L7.62977 6.69897L6.63839 5.71022L2.86977 1.94247C2.74672 1.81958 2.57992 1.75055 2.40602 1.75055C2.23211 1.75055 2.06531 1.81958 1.94227 1.94247ZM8.92827 9.85685L12.0214 12.9508C11.6088 13.3493 11.0563 13.5698 10.4827 13.5648C9.90914 13.5598 9.36049 13.3298 8.95491 12.9242C8.54933 12.5186 8.31927 11.97 8.31429 11.3964C8.30931 10.8229 8.52979 10.2694 8.92827 9.85685ZM10.4998 4.81247C9.62476 4.81247 8.77602 4.94197 7.97189 5.18435L9.05426 6.26585C10.9264 5.89516 12.8693 6.25804 14.4814 7.27947C16.0935 8.3009 17.2515 9.90276 17.7159 11.7538C17.7612 11.9192 17.8694 12.0602 18.0174 12.1467C18.1654 12.2333 18.3413 12.2585 18.5076 12.217C18.674 12.1755 18.8174 12.0706 18.9074 11.9247C18.9974 11.7788 19.0266 11.6035 18.989 11.4362C18.5149 9.54377 17.422 7.86404 15.8839 6.66392C14.3458 5.4638 12.4507 4.81213 10.4998 4.81247ZM10.6704 7.88372L13.9963 11.2087C13.9532 10.3406 13.589 9.51955 12.9743 8.90504C12.3597 8.29054 11.5385 7.92652 10.6704 7.88372Z" fill="#525B5B" stroke="#525B5B" stroke-width="0.416667"/>
</svg>
