<svg width="20" height="20" viewBox="0 0 20 20" fill="none" xmlns="http://www.w3.org/2000/svg">
<path d="M7.81818 2H3.45455C3.06878 2 2.69881 2.15325 2.42603 2.42603C2.15325 2.69881 2 3.06878 2 3.45455V7.81818C2 8.20395 2.15325 8.57392 2.42603 8.8467C2.69881 9.11948 3.06878 9.27273 3.45455 9.27273H7.81818C8.20395 9.27273 8.57392 9.11948 8.8467 8.8467C9.11948 8.57392 9.27273 8.20395 9.27273 7.81818V3.45455C9.27273 3.06878 9.11948 2.69881 8.8467 2.42603C8.57392 2.15325 8.20395 2 7.81818 2ZM7.81818 7.81818H3.45455V3.45455H7.81818V7.81818ZM16.5455 2H12.1818C11.796 2 11.4261 2.15325 11.1533 2.42603C10.8805 2.69881 10.7273 3.06878 10.7273 3.45455V7.81818C10.7273 8.20395 10.8805 8.57392 11.1533 8.8467C11.4261 9.11948 11.796 9.27273 12.1818 9.27273H16.5455C16.9312 9.27273 17.3012 9.11948 17.574 8.8467C17.8468 8.57392 18 8.20395 18 7.81818V3.45455C18 3.06878 17.8468 2.69881 17.574 2.42603C17.3012 2.15325 16.9312 2 16.5455 2ZM16.5455 7.81818H12.1818V3.45455H16.5455V7.81818ZM7.81818 10.7273H3.45455C3.06878 10.7273 2.69881 10.8805 2.42603 11.1533C2.15325 11.4261 2 11.796 2 12.1818V16.5455C2 16.9312 2.15325 17.3012 2.42603 17.574C2.69881 17.8468 3.06878 18 3.45455 18H7.81818C8.20395 18 8.57392 17.8468 8.8467 17.574C9.11948 17.3012 9.27273 16.9312 9.27273 16.5455V12.1818C9.27273 11.796 9.11948 11.4261 8.8467 11.1533C8.57392 10.8805 8.20395 10.7273 7.81818 10.7273ZM7.81818 16.5455H3.45455V12.1818H7.81818V16.5455ZM16.5455 10.7273H12.1818C11.796 10.7273 11.4261 10.8805 11.1533 11.1533C10.8805 11.4261 10.7273 11.796 10.7273 12.1818V16.5455C10.7273 16.9312 10.8805 17.3012 11.1533 17.574C11.4261 17.8468 11.796 18 12.1818 18H16.5455C16.9312 18 17.3012 17.8468 17.574 17.574C17.8468 17.3012 18 16.9312 18 16.5455V12.1818C18 11.796 17.8468 11.4261 17.574 11.1533C17.3012 10.8805 16.9312 10.7273 16.5455 10.7273ZM16.5455 16.5455H12.1818V12.1818H16.5455V16.5455Z" fill="#505152"/>
</svg>
