<svg width="14" height="14" viewBox="0 0 14 14" fill="none" xmlns="http://www.w3.org/2000/svg">
<path d="M12.625 0.125H1.375C1.04348 0.125 0.725537 0.256696 0.491116 0.491116C0.256696 0.725537 0.125 1.04348 0.125 1.375V12.625C0.125 12.9565 0.256696 13.2745 0.491116 13.5089C0.725537 13.7433 1.04348 13.875 1.375 13.875H12.625C12.9565 13.875 13.2745 13.7433 13.5089 13.5089C13.7433 13.2745 13.875 12.9565 13.875 12.625V1.375C13.875 1.04348 13.7433 0.725537 13.5089 0.491116C13.2745 0.256696 12.9565 0.125 12.625 0.125ZM12.625 6.375H7.625V1.375H12.625V6.375ZM6.375 1.375V6.375H1.375V1.375H6.375ZM1.375 7.625H6.375V12.625H1.375V7.625ZM12.625 12.625H7.625V7.625H12.625V12.625Z" fill="#CB1E5D"/>
</svg>
