<svg width="16" height="16" viewBox="0 0 16 16" fill="none" xmlns="http://www.w3.org/2000/svg">
<path d="M4.64622 7.64622L9.64622 2.64622C9.69267 2.59976 9.74782 2.56291 9.80852 2.53777C9.86921 2.51263 9.93427 2.49969 9.99997 2.49969C10.0657 2.49969 10.1307 2.51263 10.1914 2.53777C10.2521 2.56291 10.3073 2.59976 10.3537 2.64622C10.4002 2.69267 10.437 2.74782 10.4622 2.80852C10.4873 2.86921 10.5002 2.93427 10.5002 2.99997C10.5002 3.06566 10.4873 3.13072 10.4622 3.19141C10.437 3.25211 10.4002 3.30726 10.3537 3.35372L5.70684 7.99997L10.3537 12.6462C10.4475 12.74 10.5002 12.8673 10.5002 13C10.5002 13.1326 10.4475 13.2599 10.3537 13.3537C10.2599 13.4475 10.1326 13.5002 9.99997 13.5002C9.86728 13.5002 9.74004 13.4475 9.64622 13.3537L4.64622 8.35372C4.59973 8.30728 4.56285 8.25214 4.53769 8.19144C4.51252 8.13074 4.49957 8.06567 4.49957 7.99997C4.49957 7.93426 4.51252 7.86919 4.53769 7.8085C4.56285 7.7478 4.59973 7.69265 4.64622 7.64622Z" fill="#B8B8B8"/>
</svg>
