<svg width="20" height="18" viewBox="0 0 20 18" fill="none" xmlns="http://www.w3.org/2000/svg">
<path d="M20 9.00013C20.0002 11.3663 19.0686 13.6373 17.4069 15.3217C15.7451 17.0061 13.4869 17.9683 11.1209 18.0001H11C8.70147 18.0059 6.48901 17.1263 4.82187 15.5439C4.75028 15.4762 4.69273 15.395 4.6525 15.3051C4.61227 15.2151 4.59016 15.1181 4.58741 15.0196C4.58467 14.9211 4.60136 14.823 4.63652 14.731C4.67168 14.6389 4.72463 14.5547 4.79234 14.4831C4.86006 14.4115 4.94121 14.354 5.03116 14.3137C5.12112 14.2735 5.21812 14.2514 5.31662 14.2486C5.41512 14.2459 5.5132 14.2626 5.60525 14.2977C5.69731 14.3329 5.78153 14.3859 5.85312 14.4536C6.92544 15.4648 8.27195 16.1377 9.72447 16.3882C11.177 16.6386 12.6711 16.4555 14.0202 15.8618C15.3692 15.268 16.5134 14.2899 17.3098 13.0496C18.1062 11.8094 18.5195 10.3619 18.4981 8.88814C18.4766 7.41435 18.0214 5.97955 17.1892 4.76297C16.3571 3.5464 15.1849 2.60199 13.8192 2.04773C12.4534 1.49346 10.9546 1.35392 9.50998 1.64652C8.06537 1.93912 6.739 2.65091 5.69656 3.69295C5.6889 3.70123 5.68076 3.70906 5.67219 3.71638L3.18031 6.00013H5.75C5.94891 6.00013 6.13968 6.07915 6.28033 6.2198C6.42098 6.36046 6.5 6.55122 6.5 6.75013C6.5 6.94905 6.42098 7.13981 6.28033 7.28046C6.13968 7.42112 5.94891 7.50013 5.75 7.50013H1.25C1.05109 7.50013 0.860322 7.42112 0.71967 7.28046C0.579018 7.13981 0.5 6.94905 0.5 6.75013V2.25013C0.5 2.05122 0.579018 1.86046 0.71967 1.7198C0.860322 1.57915 1.05109 1.50013 1.25 1.50013C1.44891 1.50013 1.63968 1.57915 1.78033 1.7198C1.92098 1.86046 2 2.05122 2 2.25013V5.04388L4.64844 2.62513C5.90842 1.37005 7.512 0.516384 9.25675 0.171912C11.0015 -0.172559 12.8092 0.00760174 14.4516 0.689653C16.0941 1.3717 17.4976 2.52507 18.4851 4.00415C19.4726 5.48322 19.9997 7.22171 20 9.00013Z" fill="white"/>
</svg>
