<svg width="20" height="20" viewBox="0 0 20 20" fill="none" xmlns="http://www.w3.org/2000/svg">
<path d="M9.375 8.06259V13.7501C9.375 13.9159 9.44085 14.0748 9.55806 14.192C9.67527 14.3092 9.83424 14.3751 10 14.3751C10.1658 14.3751 10.3247 14.3092 10.4419 14.192C10.5592 14.0748 10.625 13.9159 10.625 13.7501V8.06259C11.3838 7.90771 12.058 7.4766 12.517 6.85285C12.976 6.2291 13.187 5.45714 13.1092 4.68664C13.0313 3.91614 12.6702 3.20199 12.0957 2.68263C11.5213 2.16328 10.7744 1.87573 10 1.87573C9.22558 1.87573 8.47874 2.16328 7.90428 2.68263C7.32982 3.20199 6.96866 3.91614 6.89082 4.68664C6.81299 5.45714 7.02402 6.2291 7.483 6.85285C7.94199 7.4766 8.61622 7.90771 9.375 8.06259ZM10 3.12509C10.3708 3.12509 10.7334 3.23506 11.0417 3.44109C11.35 3.64712 11.5904 3.93995 11.7323 4.28256C11.8742 4.62517 11.9113 5.00217 11.839 5.36589C11.7666 5.7296 11.588 6.0637 11.3258 6.32592C11.0636 6.58814 10.7295 6.76672 10.3658 6.83907C10.0021 6.91141 9.62508 6.87428 9.28247 6.73237C8.93986 6.59045 8.64702 6.35013 8.44099 6.04179C8.23497 5.73345 8.125 5.37093 8.125 5.00009C8.125 4.50281 8.32254 4.0259 8.67417 3.67427C9.02581 3.32264 9.50272 3.12509 10 3.12509ZM18.75 13.7501C18.75 16.186 14.2414 17.5001 10 17.5001C5.75859 17.5001 1.25 16.186 1.25 13.7501C1.25 13.1454 1.54766 12.2556 2.96875 11.4524C3.92656 10.9103 5.24375 10.4938 6.77891 10.2478C6.86011 10.2349 6.94305 10.2382 7.02298 10.2575C7.10291 10.2767 7.17827 10.3115 7.24475 10.3598C7.31124 10.4082 7.36756 10.4691 7.41048 10.5393C7.4534 10.6094 7.4821 10.6873 7.49492 10.7685C7.50775 10.8497 7.50445 10.9326 7.48522 11.0125C7.466 11.0925 7.43121 11.1678 7.38286 11.2343C7.33451 11.3008 7.27354 11.3571 7.20342 11.4C7.13331 11.443 7.05542 11.4716 6.97422 11.4845C5.60391 11.7048 4.39609 12.0806 3.58203 12.5431C2.89453 12.9298 2.5 13.3704 2.5 13.7501C2.5 14.7938 5.35313 16.2501 10 16.2501C14.6469 16.2501 17.5 14.7938 17.5 13.7501C17.5 13.3704 17.1055 12.9298 16.418 12.5399C15.6008 12.0774 14.3961 11.7017 13.0258 11.4813C12.9429 11.4705 12.8629 11.4431 12.7908 11.4009C12.7186 11.3586 12.6557 11.3023 12.6057 11.2352C12.5557 11.1682 12.5197 11.0918 12.4997 11.0105C12.4798 10.9293 12.4764 10.8449 12.4897 10.7623C12.5029 10.6798 12.5327 10.6007 12.5771 10.5298C12.6215 10.459 12.6796 10.3977 12.7481 10.3497C12.8166 10.3017 12.8941 10.268 12.9758 10.2505C13.0576 10.233 13.1421 10.232 13.2242 10.2478C14.7594 10.4938 16.0766 10.9103 17.0344 11.4524C18.4523 12.2556 18.75 13.1454 18.75 13.7501Z" fill="black"/>
</svg>
