<svg width="20" height="20" viewBox="0 0 20 20" fill="none" xmlns="http://www.w3.org/2000/svg">
<path d="M17.5 10.0001C17.5 10.1659 17.4341 10.3248 17.3169 10.442C17.1997 10.5593 17.0407 10.6251 16.875 10.6251H9.99998C9.83422 10.6251 9.67525 10.5593 9.55804 10.442C9.44083 10.3248 9.37498 10.1659 9.37498 10.0001C9.37498 9.83434 9.44083 9.67537 9.55804 9.55816C9.67525 9.44095 9.83422 9.3751 9.99998 9.3751H16.875C17.0407 9.3751 17.1997 9.44095 17.3169 9.55816C17.4341 9.67537 17.5 9.83434 17.5 10.0001ZM9.99998 5.6251H16.875C17.0407 5.6251 17.1997 5.55926 17.3169 5.44204C17.4341 5.32483 17.5 5.16586 17.5 5.0001C17.5 4.83434 17.4341 4.67537 17.3169 4.55816C17.1997 4.44095 17.0407 4.3751 16.875 4.3751H9.99998C9.83422 4.3751 9.67525 4.44095 9.55804 4.55816C9.44083 4.67537 9.37498 4.83434 9.37498 5.0001C9.37498 5.16586 9.44083 5.32483 9.55804 5.44204C9.67525 5.55926 9.83422 5.6251 9.99998 5.6251ZM16.875 14.3751H9.99998C9.83422 14.3751 9.67525 14.441 9.55804 14.5582C9.44083 14.6754 9.37498 14.8343 9.37498 15.0001C9.37498 15.1659 9.44083 15.3248 9.55804 15.442C9.67525 15.5593 9.83422 15.6251 9.99998 15.6251H16.875C17.0407 15.6251 17.1997 15.5593 17.3169 15.442C17.4341 15.3248 17.5 15.1659 17.5 15.0001C17.5 14.8343 17.4341 14.6754 17.3169 14.5582C17.1997 14.441 17.0407 14.3751 16.875 14.3751ZM6.43279 3.30792L4.37498 5.36651L3.56717 4.55792C3.44989 4.44064 3.29083 4.37476 3.12498 4.37476C2.95913 4.37476 2.80007 4.44064 2.68279 4.55792C2.56552 4.67519 2.49963 4.83425 2.49963 5.0001C2.49963 5.16596 2.56552 5.32502 2.68279 5.44229L3.93279 6.69229C3.99084 6.7504 4.05977 6.7965 4.13564 6.82795C4.21152 6.85941 4.29285 6.8756 4.37498 6.8756C4.45712 6.8756 4.53845 6.85941 4.61432 6.82795C4.69019 6.7965 4.75912 6.7504 4.81717 6.69229L7.31717 4.19229C7.43444 4.07502 7.50033 3.91596 7.50033 3.7501C7.50033 3.58425 7.43444 3.42519 7.31717 3.30792C7.19989 3.19064 7.04083 3.12476 6.87498 3.12476C6.70913 3.12476 6.55007 3.19064 6.43279 3.30792ZM6.43279 8.30792L4.37498 10.3665L3.56717 9.55792C3.44989 9.44064 3.29083 9.37476 3.12498 9.37476C2.95913 9.37476 2.80007 9.44064 2.68279 9.55792C2.56552 9.67519 2.49963 9.83425 2.49963 10.0001C2.49963 10.0822 2.51581 10.1635 2.54724 10.2394C2.57866 10.3153 2.62472 10.3842 2.68279 10.4423L3.93279 11.6923C3.99084 11.7504 4.05977 11.7965 4.13564 11.828C4.21152 11.8594 4.29285 11.8756 4.37498 11.8756C4.45712 11.8756 4.53845 11.8594 4.61432 11.828C4.69019 11.7965 4.75912 11.7504 4.81717 11.6923L7.31717 9.19229C7.43444 9.07502 7.50033 8.91596 7.50033 8.7501C7.50033 8.58425 7.43444 8.42519 7.31717 8.30792C7.19989 8.19064 7.04083 8.12476 6.87498 8.12476C6.70913 8.12476 6.55007 8.19064 6.43279 8.30792ZM6.43279 13.3079L4.37498 15.3665L3.56717 14.5579C3.5091 14.4998 3.44016 14.4538 3.36429 14.4224C3.28842 14.3909 3.2071 14.3748 3.12498 14.3748C3.04286 14.3748 2.96154 14.3909 2.88567 14.4224C2.8098 14.4538 2.74086 14.4998 2.68279 14.5579C2.62472 14.616 2.57866 14.6849 2.54724 14.7608C2.51581 14.8367 2.49963 14.918 2.49963 15.0001C2.49963 15.0822 2.51581 15.1635 2.54724 15.2394C2.57866 15.3153 2.62472 15.3842 2.68279 15.4423L3.93279 16.6923C3.99084 16.7504 4.05977 16.7965 4.13564 16.828C4.21152 16.8594 4.29285 16.8756 4.37498 16.8756C4.45712 16.8756 4.53845 16.8594 4.61432 16.828C4.69019 16.7965 4.75912 16.7504 4.81717 16.6923L7.31717 14.1923C7.43444 14.075 7.50033 13.916 7.50033 13.7501C7.50033 13.5843 7.43444 13.4252 7.31717 13.3079C7.19989 13.1906 7.04083 13.1248 6.87498 13.1248C6.70913 13.1248 6.55007 13.1906 6.43279 13.3079Z" fill="black"/>
</svg>
