<svg width="21" height="21" viewBox="0 0 21 21" fill="none" xmlns="http://www.w3.org/2000/svg">
<path d="M10.5001 7.87938C11.4284 7.87938 12.3186 8.24812 12.975 8.9045C13.6314 9.56088 14.0001 10.4511 14.0001 11.3794C14.0001 12.3076 13.6314 13.1979 12.975 13.8542C12.3186 14.5106 11.4284 14.8794 10.5001 14.8794C9.57184 14.8794 8.6816 14.5106 8.02523 13.8542C7.36885 13.1979 7.0001 12.3076 7.0001 11.3794C7.0001 10.4511 7.36885 9.56088 8.02523 8.9045C8.6816 8.24812 9.57184 7.87938 10.5001 7.87938ZM10.5001 9.19187C9.91994 9.19187 9.36354 9.42234 8.95331 9.83258C8.54307 10.2428 8.3126 10.7992 8.3126 11.3794C8.3126 11.9595 8.54307 12.5159 8.95331 12.9262C9.36354 13.3364 9.91994 13.5669 10.5001 13.5669C11.0803 13.5669 11.6367 13.3364 12.0469 12.9262C12.4571 12.5159 12.6876 11.9595 12.6876 11.3794C12.6876 10.7992 12.4571 10.2428 12.0469 9.83258C11.6367 9.42234 11.0803 9.19187 10.5001 9.19187ZM10.5001 4.8125C14.5365 4.8125 18.0216 7.56875 18.9885 11.431C19.0308 11.5998 19.0044 11.7786 18.9149 11.9279C18.8255 12.0772 18.6804 12.1849 18.5116 12.2272C18.3428 12.2696 18.164 12.2432 18.0147 12.1537C17.8654 12.0643 17.7577 11.9192 17.7154 11.7504C17.3102 10.1434 16.3803 8.71768 15.0729 7.69924C13.7655 6.6808 12.1555 6.12796 10.4983 6.12836C8.84106 6.12876 7.23138 6.68239 5.92449 7.70146C4.6176 8.72053 3.68832 10.1467 3.28398 11.7539C3.26312 11.8375 3.22599 11.9163 3.17471 11.9856C3.12343 12.0549 3.059 12.1134 2.98511 12.1578C2.91121 12.2022 2.82929 12.2316 2.74402 12.2443C2.65876 12.2571 2.57182 12.2529 2.48816 12.2321C2.40451 12.2112 2.32579 12.1741 2.25648 12.1228C2.18718 12.0715 2.12866 12.0071 2.08425 11.9332C2.03985 11.8593 2.01044 11.7774 1.99769 11.6921C1.98495 11.6068 1.98912 11.5199 2.00998 11.4362C2.48409 9.54366 3.57715 7.86381 5.11545 6.66368C6.65374 5.46354 8.54903 4.81197 10.5001 4.8125Z" fill="#525B5B" stroke="#525B5B" stroke-width="0.416667"/>
</svg>
