<svg width="24" height="24" viewBox="0 0 24 24" fill="none" xmlns="http://www.w3.org/2000/svg">
<path d="M17.6255 4.50003C17.2362 4.49948 16.8517 4.5863 16.5005 4.75409V4.12503C16.5007 3.49938 16.2775 2.89423 15.871 2.41861C15.4645 1.943 14.9016 1.6282 14.2835 1.53094C13.6655 1.43368 13.033 1.56037 12.5001 1.88816C11.9672 2.21595 11.5689 2.7233 11.377 3.31878C10.9773 3.10195 10.5281 2.9927 10.0734 3.00172C9.6187 3.01074 9.17417 3.13773 8.78334 3.37024C8.39251 3.60276 8.06879 3.93282 7.8439 4.32808C7.61901 4.72335 7.50066 5.17026 7.50046 5.62503V11.625L7.14233 11.0503C6.79449 10.45 6.22314 10.0119 5.55318 9.83161C4.88322 9.65133 4.16914 9.74361 3.56702 10.0883C2.9649 10.433 2.52372 11.002 2.3399 11.671C2.15609 12.34 2.2446 13.0545 2.58608 13.6585C4.08608 16.8244 5.29827 19.0697 6.68483 20.4732C8.08546 21.8944 9.67546 22.5 12.0005 22.5C14.1877 22.4975 16.2847 21.6276 17.8313 20.0809C19.378 18.5343 20.248 16.4373 20.2505 14.25V7.12503C20.2505 6.42883 19.9739 5.76115 19.4816 5.26887C18.9893 4.77659 18.3217 4.50003 17.6255 4.50003ZM18.7505 14.25C18.7485 16.0396 18.0367 17.7554 16.7712 19.0208C15.5058 20.2862 13.7901 20.998 12.0005 21C10.0898 21 8.85889 20.5425 7.75077 19.4203C6.51046 18.1631 5.36858 16.0313 3.92858 12.9919C3.92014 12.9733 3.91076 12.9552 3.90046 12.9375C3.75127 12.6791 3.71087 12.3719 3.78814 12.0837C3.86541 11.7954 4.05403 11.5497 4.31249 11.4005C4.57095 11.2513 4.87809 11.2109 5.16634 11.2882C5.45459 11.3655 5.70034 11.5541 5.84952 11.8125C5.85334 11.82 5.85773 11.8272 5.86264 11.8341L7.61296 14.6466C7.69894 14.7853 7.82784 14.8922 7.98009 14.9511C8.13234 15.0099 8.29962 15.0175 8.45656 14.9726C8.6135 14.9278 8.75153 14.8329 8.84969 14.7025C8.94784 14.5721 9.00078 14.4132 9.00046 14.25V5.62503C9.00046 5.32666 9.11898 5.04051 9.32996 4.82953C9.54094 4.61855 9.82709 4.50003 10.1255 4.50003C10.4238 4.50003 10.71 4.61855 10.921 4.82953C11.1319 5.04051 11.2505 5.32666 11.2505 5.62503V11.25C11.2505 11.4489 11.3295 11.6397 11.4701 11.7804C11.6108 11.921 11.8015 12 12.0005 12C12.1994 12 12.3901 11.921 12.5308 11.7804C12.6714 11.6397 12.7505 11.4489 12.7505 11.25V4.12503C12.7505 3.82666 12.869 3.54051 13.08 3.32953C13.2909 3.11855 13.5771 3.00003 13.8755 3.00003C14.1738 3.00003 14.46 3.11855 14.671 3.32953C14.8819 3.54051 15.0005 3.82666 15.0005 4.12503V11.25C15.0005 11.4489 15.0795 11.6397 15.2201 11.7804C15.3608 11.921 15.5515 12 15.7505 12C15.9494 12 16.1401 11.921 16.2808 11.7804C16.4214 11.6397 16.5005 11.4489 16.5005 11.25V7.12503C16.5005 6.82666 16.619 6.54051 16.83 6.32953C17.0409 6.11855 17.3271 6.00003 17.6255 6.00003C17.9238 6.00003 18.21 6.11855 18.421 6.32953C18.6319 6.54051 18.7505 6.82666 18.7505 7.12503V14.25Z" fill="white"/>
</svg>
