<svg width="20" height="20" viewBox="0 0 20 20" fill="none" xmlns="http://www.w3.org/2000/svg">
<path d="M16.6842 7.39979L12.5996 3.31551C12.4996 3.21549 12.3809 3.13614 12.2502 3.082C12.1195 3.02786 11.9795 3 11.8381 3C11.6966 3 11.5566 3.02786 11.4259 3.082C11.2953 3.13614 11.1765 3.21549 11.0765 3.31551L7.46711 6.93671C6.74967 6.7119 5.11153 6.44065 3.40204 7.82114C3.28421 7.9159 3.18766 8.03441 3.11866 8.16896C3.04966 8.30351 3.00977 8.45108 3.00158 8.60207C2.99339 8.75306 3.01709 8.90408 3.07113 9.04531C3.12516 9.18653 3.20834 9.31479 3.31522 9.42174L6.56728 12.6727L3.69616 15.5421C3.59513 15.6431 3.53837 15.7802 3.53837 15.9231C3.53837 16.066 3.59513 16.203 3.69616 16.304C3.79719 16.4051 3.93421 16.4618 4.07709 16.4618C4.21996 16.4618 4.35699 16.4051 4.45802 16.304L7.32712 13.4327L10.5772 16.683C10.6771 16.7833 10.7958 16.863 10.9265 16.9174C11.0573 16.9718 11.1974 16.9998 11.339 17C11.3646 17 11.3895 17 11.4151 17C11.5686 16.9894 11.718 16.9458 11.8532 16.8723C11.9883 16.7988 12.1061 16.697 12.1985 16.5739C13.5203 14.8172 13.3931 13.3889 13.0862 12.5354L16.6848 8.92298C16.7848 8.82293 16.8641 8.70417 16.9182 8.57347C16.9723 8.44277 17.0001 8.30269 17 8.16125C16.9999 8.0198 16.972 7.87975 16.9178 7.7491C16.8636 7.61845 16.7842 7.49975 16.6842 7.39979ZM15.9223 8.16172L12.0679 12.0293C11.9883 12.1092 11.9358 12.2121 11.9178 12.3234C11.8998 12.4348 11.9172 12.5489 11.9676 12.6499C12.6043 13.924 11.8465 15.2473 11.339 15.9224L4.07709 8.65913C4.8901 8.00355 5.66812 7.83057 6.26307 7.83057C6.64059 7.82541 7.01499 7.89948 7.36212 8.04797C7.46339 8.09866 7.57807 8.11612 7.68983 8.09788C7.8016 8.07963 7.90477 8.0266 7.98467 7.94634L11.8384 4.07677L15.9223 8.16105V8.16172Z" fill="#CB1E5D"/>
</svg>
