<svg width="16" height="17" viewBox="0 0 16 17" fill="none" xmlns="http://www.w3.org/2000/svg">
<path d="M7.64625 11.8537L2.64625 6.85375C2.5998 6.80729 2.56295 6.75214 2.53781 6.69145C2.51267 6.63075 2.49973 6.5657 2.49973 6.5C2.49973 6.4343 2.51267 6.36925 2.53781 6.30855C2.56295 6.24785 2.5998 6.1927 2.64625 6.14625C2.69271 6.09979 2.74786 6.06294 2.80856 6.0378C2.86925 6.01266 2.93431 5.99972 3 5.99972C3.0657 5.99972 3.13076 6.01266 3.19145 6.0378C3.25215 6.06294 3.3073 6.09979 3.35375 6.14625L8 10.7931L12.6463 6.14625C12.7401 6.05243 12.8673 5.99972 13 5.99972C13.1327 5.99972 13.2599 6.05243 13.3538 6.14625C13.4476 6.24007 13.5003 6.36732 13.5003 6.5C13.5003 6.63268 13.4476 6.75993 13.3538 6.85375L8.35375 11.8537C8.30732 11.9002 8.25217 11.9371 8.19147 11.9623C8.13078 11.9874 8.06571 12.0004 8 12.0004C7.9343 12.0004 7.86923 11.9874 7.80853 11.9623C7.74784 11.9371 7.69269 11.9002 7.64625 11.8537Z" fill="#88123C"/>
</svg>
