<svg width="16" height="17" viewBox="0 0 16 17" fill="none" xmlns="http://www.w3.org/2000/svg">
<path d="M7.64597 11.8538L2.64597 6.85378C2.59952 6.80733 2.56267 6.75218 2.53753 6.69148C2.51238 6.63079 2.49944 6.56573 2.49944 6.50003C2.49944 6.43434 2.51238 6.36928 2.53753 6.30859C2.56267 6.24789 2.59952 6.19274 2.64597 6.14628C2.69243 6.09983 2.74758 6.06298 2.80827 6.03784C2.86897 6.0127 2.93402 5.99976 2.99972 5.99976C3.06542 5.99976 3.13047 6.0127 3.19117 6.03784C3.25187 6.06298 3.30702 6.09983 3.35347 6.14628L7.99972 10.7932L12.646 6.14628C12.7398 6.05246 12.867 5.99976 12.9997 5.99976C13.1324 5.99976 13.2597 6.05246 13.3535 6.14628C13.4473 6.2401 13.5 6.36735 13.5 6.50003C13.5 6.63272 13.4473 6.75996 13.3535 6.85378L8.35347 11.8538C8.30704 11.9003 8.25189 11.9372 8.19119 11.9623C8.13049 11.9875 8.06543 12.0004 7.99972 12.0004C7.93401 12.0004 7.86895 11.9875 7.80825 11.9623C7.74755 11.9372 7.69241 11.9003 7.64597 11.8538Z" fill="black"/>
</svg>
