<svg width="16" height="17" viewBox="0 0 16 17" fill="none" xmlns="http://www.w3.org/2000/svg">
<path d="M8.35403 5.14622L13.354 10.1462C13.4005 10.1927 13.4373 10.2478 13.4625 10.3085C13.4876 10.3692 13.5006 10.4343 13.5006 10.5C13.5006 10.5657 13.4876 10.6307 13.4625 10.6914C13.4373 10.7521 13.4005 10.8073 13.354 10.8537C13.3076 10.9002 13.2524 10.937 13.1917 10.9622C13.131 10.9873 13.066 11.0002 13.0003 11.0002C12.9346 11.0002 12.8695 10.9873 12.8088 10.9622C12.7481 10.937 12.693 10.9002 12.6465 10.8537L8.00028 6.20684L3.35403 10.8537C3.26021 10.9475 3.13296 11.0002 3.00028 11.0002C2.8676 11.0002 2.74035 10.9475 2.64653 10.8537C2.55271 10.7599 2.5 10.6326 2.5 10.5C2.5 10.3673 2.55271 10.24 2.64653 10.1462L7.64653 5.14622C7.69296 5.09973 7.74811 5.06285 7.80881 5.03769C7.86951 5.01252 7.93457 4.99957 8.00028 4.99957C8.06599 4.99957 8.13105 5.01252 8.19175 5.03769C8.25245 5.06285 8.30759 5.09973 8.35403 5.14622Z" fill="#88123C"/>
</svg>
