<svg width="18" height="18" viewBox="0 0 18 18" fill="none" xmlns="http://www.w3.org/2000/svg">
<path d="M17.4 16.6155H16.2V6.92363C16.2 6.55643 16.0736 6.20426 15.8485 5.94461C15.6235 5.68496 15.3183 5.53908 15 5.53908H10.2V1.38545C10.2001 1.13473 10.1413 0.888665 10.0297 0.67353C9.91809 0.458394 9.75796 0.282258 9.56638 0.163922C9.37481 0.0455851 9.15898 -0.0105105 8.94193 0.0016224C8.72488 0.0137553 8.51476 0.0936613 8.334 0.232811L2.334 4.84681C2.1694 4.97352 2.03452 5.14521 1.94135 5.34662C1.84818 5.54802 1.79962 5.77288 1.8 6.00118V16.6155H0.6C0.44087 16.6155 0.288258 16.6884 0.175736 16.8182C0.0632141 16.948 0 17.1241 0 17.3077C0 17.4913 0.0632141 17.6674 0.175736 17.7972C0.288258 17.9271 0.44087 18 0.6 18H17.4C17.5591 18 17.7117 17.9271 17.8243 17.7972C17.9368 17.6674 18 17.4913 18 17.3077C18 17.1241 17.9368 16.948 17.8243 16.8182C17.7117 16.6884 17.5591 16.6155 17.4 16.6155ZM15 6.92363V16.6155H10.2V6.92363H15ZM3 6.00118L9 1.38545V16.6155H3V6.00118ZM7.8 8.30818V9.69272C7.8 9.87633 7.73679 10.0524 7.62426 10.1822C7.51174 10.3121 7.35913 10.385 7.2 10.385C7.04087 10.385 6.88826 10.3121 6.77574 10.1822C6.66321 10.0524 6.6 9.87633 6.6 9.69272V8.30818C6.6 8.12457 6.66321 7.94849 6.77574 7.81867C6.88826 7.68884 7.04087 7.6159 7.2 7.6159C7.35913 7.6159 7.51174 7.68884 7.62426 7.81867C7.73679 7.94849 7.8 8.12457 7.8 8.30818ZM5.4 8.30818V9.69272C5.4 9.87633 5.33679 10.0524 5.22426 10.1822C5.11174 10.3121 4.95913 10.385 4.8 10.385C4.64087 10.385 4.48826 10.3121 4.37574 10.1822C4.26321 10.0524 4.2 9.87633 4.2 9.69272V8.30818C4.2 8.12457 4.26321 7.94849 4.37574 7.81867C4.48826 7.68884 4.64087 7.6159 4.8 7.6159C4.95913 7.6159 5.11174 7.68884 5.22426 7.81867C5.33679 7.94849 5.4 8.12457 5.4 8.30818ZM5.4 13.1541V14.5386C5.4 14.7222 5.33679 14.8983 5.22426 15.0281C5.11174 15.158 4.95913 15.2309 4.8 15.2309C4.64087 15.2309 4.48826 15.158 4.37574 15.0281C4.26321 14.8983 4.2 14.7222 4.2 14.5386V13.1541C4.2 12.9705 4.26321 12.7944 4.37574 12.6646C4.48826 12.5348 4.64087 12.4618 4.8 12.4618C4.95913 12.4618 5.11174 12.5348 5.22426 12.6646C5.33679 12.7944 5.4 12.9705 5.4 13.1541ZM7.8 13.1541V14.5386C7.8 14.7222 7.73679 14.8983 7.62426 15.0281C7.51174 15.158 7.35913 15.2309 7.2 15.2309C7.04087 15.2309 6.88826 15.158 6.77574 15.0281C6.66321 14.8983 6.6 14.7222 6.6 14.5386V13.1541C6.6 12.9705 6.66321 12.7944 6.77574 12.6646C6.88826 12.5348 7.04087 12.4618 7.2 12.4618C7.35913 12.4618 7.51174 12.5348 7.62426 12.6646C7.73679 12.7944 7.8 12.9705 7.8 13.1541Z" fill="#505152"/>
</svg>
