<svg width="20" height="21" viewBox="0 0 20 21" fill="none" xmlns="http://www.w3.org/2000/svg">
<path opacity="0.2" d="M10.625 3.00007V17.3751H3.125V7.16803C3.12493 7.06511 3.15029 6.96376 3.1988 6.87299C3.24732 6.78223 3.31751 6.70484 3.40313 6.64772L9.65312 2.48132C9.74716 2.41857 9.85645 2.38251 9.96937 2.37697C10.0823 2.37143 10.1946 2.39662 10.2943 2.44985C10.394 2.50308 10.4775 2.58236 10.5357 2.67926C10.5939 2.77615 10.6248 2.88702 10.625 3.00007Z" fill="#066BD8"/>
<path d="M18.75 16.7501H17.5V8.00008C17.5 7.66856 17.3683 7.35062 17.1339 7.1162C16.8995 6.88178 16.5815 6.75008 16.25 6.75008H11.25V3.00008C11.2501 2.77372 11.1888 2.55158 11.0726 2.35735C10.9563 2.16312 10.7895 2.0041 10.59 1.89726C10.3904 1.79042 10.1656 1.73978 9.93951 1.75073C9.71342 1.76169 9.49454 1.83383 9.30625 1.95946L3.05625 6.12508C2.8848 6.23947 2.74429 6.39448 2.64724 6.57632C2.55019 6.75815 2.49961 6.96116 2.5 7.16727V16.7501H1.25C1.08424 16.7501 0.925268 16.8159 0.808058 16.9331C0.690848 17.0503 0.625 17.2093 0.625 17.3751C0.625 17.5408 0.690848 17.6998 0.808058 17.817C0.925268 17.9342 1.08424 18.0001 1.25 18.0001H18.75C18.9158 18.0001 19.0747 17.9342 19.1919 17.817C19.3092 17.6998 19.375 17.5408 19.375 17.3751C19.375 17.2093 19.3092 17.0503 19.1919 16.9331C19.0747 16.8159 18.9158 16.7501 18.75 16.7501ZM16.25 8.00008V16.7501H11.25V8.00008H16.25ZM3.75 7.16727L10 3.00008V16.7501H3.75V7.16727ZM8.75 9.25008V10.5001C8.75 10.6658 8.68415 10.8248 8.56694 10.942C8.44973 11.0592 8.29076 11.1251 8.125 11.1251C7.95924 11.1251 7.80027 11.0592 7.68306 10.942C7.56585 10.8248 7.5 10.6658 7.5 10.5001V9.25008C7.5 9.08432 7.56585 8.92535 7.68306 8.80814C7.80027 8.69093 7.95924 8.62508 8.125 8.62508C8.29076 8.62508 8.44973 8.69093 8.56694 8.80814C8.68415 8.92535 8.75 9.08432 8.75 9.25008ZM6.25 9.25008V10.5001C6.25 10.6658 6.18415 10.8248 6.06694 10.942C5.94973 11.0592 5.79076 11.1251 5.625 11.1251C5.45924 11.1251 5.30027 11.0592 5.18306 10.942C5.06585 10.8248 5 10.6658 5 10.5001V9.25008C5 9.08432 5.06585 8.92535 5.18306 8.80814C5.30027 8.69093 5.45924 8.62508 5.625 8.62508C5.79076 8.62508 5.94973 8.69093 6.06694 8.80814C6.18415 8.92535 6.25 9.08432 6.25 9.25008ZM6.25 13.6251V14.8751C6.25 15.0408 6.18415 15.1998 6.06694 15.317C5.94973 15.4342 5.79076 15.5001 5.625 15.5001C5.45924 15.5001 5.30027 15.4342 5.18306 15.317C5.06585 15.1998 5 15.0408 5 14.8751V13.6251C5 13.4593 5.06585 13.3003 5.18306 13.1831C5.30027 13.0659 5.45924 13.0001 5.625 13.0001C5.79076 13.0001 5.94973 13.0659 6.06694 13.1831C6.18415 13.3003 6.25 13.4593 6.25 13.6251ZM8.75 13.6251V14.8751C8.75 15.0408 8.68415 15.1998 8.56694 15.317C8.44973 15.4342 8.29076 15.5001 8.125 15.5001C7.95924 15.5001 7.80027 15.4342 7.68306 15.317C7.56585 15.1998 7.5 15.0408 7.5 14.8751V13.6251C7.5 13.4593 7.56585 13.3003 7.68306 13.1831C7.80027 13.0659 7.95924 13.0001 8.125 13.0001C8.29076 13.0001 8.44973 13.0659 8.56694 13.1831C8.68415 13.3003 8.75 13.4593 8.75 13.6251Z" fill="#066BD8"/>
</svg>
