<svg width="20" height="20" viewBox="0 0 20 20" fill="none" xmlns="http://www.w3.org/2000/svg">
<path d="M18.7184 17.6091H17.5184V7.91728C17.5184 7.55008 17.3919 7.19791 17.1669 6.93826C16.9418 6.67861 16.6366 6.53274 16.3184 6.53274H11.5184V2.3791C11.5185 2.12838 11.4596 1.88232 11.348 1.66718C11.2364 1.45205 11.0763 1.27591 10.8847 1.15757C10.6932 1.03924 10.4773 0.983142 10.2603 0.995275C10.0432 1.00741 9.83312 1.08731 9.65236 1.22646L3.65236 5.84046C3.48776 5.96717 3.35288 6.13886 3.25971 6.34027C3.16654 6.54167 3.11798 6.76653 3.11836 6.99483V17.6091H1.91836C1.75923 17.6091 1.60662 17.682 1.4941 17.8119C1.38157 17.9417 1.31836 18.1178 1.31836 18.3014C1.31836 18.485 1.38157 18.6611 1.4941 18.7909C1.60662 18.9207 1.75923 18.9937 1.91836 18.9937H18.7184C18.8775 18.9937 19.0301 18.9207 19.1426 18.7909C19.2551 18.6611 19.3184 18.485 19.3184 18.3014C19.3184 18.1178 19.2551 17.9417 19.1426 17.8119C19.0301 17.682 18.8775 17.6091 18.7184 17.6091ZM16.3184 7.91728V17.6091H11.5184V7.91728H16.3184ZM4.31836 6.99483L10.3184 2.3791V17.6091H4.31836V6.99483ZM9.11836 9.30183V10.6864C9.11836 10.87 9.05515 11.0461 8.94262 11.1759C8.8301 11.3057 8.67749 11.3786 8.51836 11.3786C8.35923 11.3786 8.20662 11.3057 8.0941 11.1759C7.98157 11.0461 7.91836 10.87 7.91836 10.6864V9.30183C7.91836 9.11823 7.98157 8.94214 8.0941 8.81232C8.20662 8.68249 8.35923 8.60956 8.51836 8.60956C8.67749 8.60956 8.8301 8.68249 8.94262 8.81232C9.05515 8.94214 9.11836 9.11823 9.11836 9.30183ZM6.71836 9.30183V10.6864C6.71836 10.87 6.65515 11.0461 6.54262 11.1759C6.4301 11.3057 6.27749 11.3786 6.11836 11.3786C5.95923 11.3786 5.80662 11.3057 5.6941 11.1759C5.58157 11.0461 5.51836 10.87 5.51836 10.6864V9.30183C5.51836 9.11823 5.58157 8.94214 5.6941 8.81232C5.80662 8.68249 5.95923 8.60956 6.11836 8.60956C6.27749 8.60956 6.4301 8.68249 6.54262 8.81232C6.65515 8.94214 6.71836 9.11823 6.71836 9.30183ZM6.71836 14.1477V15.5323C6.71836 15.7159 6.65515 15.892 6.54262 16.0218C6.4301 16.1516 6.27749 16.2246 6.11836 16.2246C5.95923 16.2246 5.80662 16.1516 5.6941 16.0218C5.58157 15.892 5.51836 15.7159 5.51836 15.5323V14.1477C5.51836 13.9641 5.58157 13.7881 5.6941 13.6582C5.80662 13.5284 5.95923 13.4555 6.11836 13.4555C6.27749 13.4555 6.4301 13.5284 6.54262 13.6582C6.65515 13.7881 6.71836 13.9641 6.71836 14.1477ZM9.11836 14.1477V15.5323C9.11836 15.7159 9.05515 15.892 8.94262 16.0218C8.8301 16.1516 8.67749 16.2246 8.51836 16.2246C8.35923 16.2246 8.20662 16.1516 8.0941 16.0218C7.98157 15.892 7.91836 15.7159 7.91836 15.5323V14.1477C7.91836 13.9641 7.98157 13.7881 8.0941 13.6582C8.20662 13.5284 8.35923 13.4555 8.51836 13.4555C8.67749 13.4555 8.8301 13.5284 8.94262 13.6582C9.05515 13.7881 9.11836 13.9641 9.11836 14.1477Z" fill="white"/>
</svg>
