<svg width="20" height="18" viewBox="0 0 20 18" fill="none" xmlns="http://www.w3.org/2000/svg">
<path d="M19.4995 2.25013V6.75013C19.4995 6.94905 19.4205 7.13981 19.2799 7.28046C19.1392 7.42112 18.9484 7.50013 18.7495 7.50013H14.2495C14.0506 7.50013 13.8598 7.42112 13.7192 7.28046C13.5785 7.13981 13.4995 6.94905 13.4995 6.75013C13.4995 6.55122 13.5785 6.36046 13.7192 6.2198C13.8598 6.07915 14.0506 6.00013 14.2495 6.00013H16.8183L14.3255 3.71638L14.302 3.69388C13.2596 2.65184 11.9332 1.94006 10.4886 1.64746C9.04399 1.35485 7.54518 1.4944 6.17942 2.04866C4.81365 2.60293 3.64148 3.54734 2.80934 4.76391C1.97719 5.98048 1.52196 7.41529 1.50052 8.88908C1.47907 10.3629 1.89237 11.8103 2.68877 13.0506C3.48517 14.2908 4.62937 15.269 5.97843 15.8627C7.32749 16.4565 8.8216 16.6396 10.2741 16.3891C11.7266 16.1387 13.0731 15.4658 14.1455 14.4545C14.29 14.3178 14.483 14.244 14.682 14.2496C14.8809 14.2551 15.0695 14.3395 15.2062 14.484C15.343 14.6286 15.4167 14.8216 15.4112 15.0205C15.4056 15.2195 15.3213 15.4081 15.1767 15.5448C13.5093 17.1261 11.2975 18.0053 8.99952 18.0001H8.87577C7.40177 17.9799 5.9553 17.598 4.66349 16.8879C3.37167 16.1777 2.27406 15.1612 1.46714 13.9275C0.660208 12.6938 0.168664 11.2808 0.0357069 9.81272C-0.0972498 8.34459 0.132452 6.86628 0.704622 5.50772C1.27679 4.14916 2.17391 2.95194 3.31714 2.02128C4.46036 1.09063 5.81468 0.455042 7.26107 0.170377C8.70745 -0.114288 10.2016 -0.0393122 11.6122 0.388714C13.0229 0.816741 14.3068 1.58471 15.3511 2.62513L17.9995 5.04388V2.25013C17.9995 2.05122 18.0785 1.86046 18.2192 1.7198C18.3598 1.57915 18.5506 1.50013 18.7495 1.50013C18.9484 1.50013 19.1392 1.57915 19.2799 1.7198C19.4205 1.86046 19.4995 2.05122 19.4995 2.25013Z" fill="white"/>
</svg>
