<svg width="14" height="15" viewBox="0 0 14 15" fill="none" xmlns="http://www.w3.org/2000/svg">
<path d="M9.85403 7.85403L4.85403 12.854C4.80757 12.9005 4.75242 12.9373 4.69173 12.9625C4.63103 12.9876 4.56598 13.0006 4.50028 13.0006C4.43458 13.0006 4.36953 12.9876 4.30883 12.9625C4.24813 12.9373 4.19298 12.9005 4.14653 12.854C4.10007 12.8076 4.06322 12.7524 4.03808 12.6917C4.01294 12.631 4 12.566 4 12.5003C4 12.4346 4.01294 12.3695 4.03808 12.3088C4.06322 12.2481 4.10007 12.193 4.14653 12.1465L8.7934 7.50028L4.14653 2.85403C4.05271 2.76021 4 2.63296 4 2.50028C4 2.3676 4.05271 2.24035 4.14653 2.14653C4.24035 2.05271 4.3676 2 4.50028 2C4.63296 2 4.76021 2.05271 4.85403 2.14653L9.85403 7.14653C9.90052 7.19296 9.9374 7.24811 9.96256 7.30881C9.98772 7.36951 10.0007 7.43457 10.0007 7.50028C10.0007 7.56599 9.98772 7.63105 9.96256 7.69175C9.9374 7.75245 9.90052 7.80759 9.85403 7.85403Z" fill="#141414"/>
</svg>
