<svg width="40" height="20" viewBox="0 0 40 20" fill="none" xmlns="http://www.w3.org/2000/svg">
<path d="M13.1563 11.125H11.75V8.875H13.1563C13.6569 8.875 14.1463 8.72655 14.5625 8.44841C14.9788 8.17027 15.3032 7.77494 15.4948 7.31242C15.6864 6.84989 15.7365 6.34094 15.6389 5.84993C15.5412 5.35891 15.3001 4.90789 14.9461 4.55389C14.5921 4.19989 14.1411 3.95881 13.6501 3.86114C13.1591 3.76347 12.6501 3.8136 12.1876 4.00518C11.7251 4.19677 11.3297 4.5212 11.0516 4.93746C10.7735 5.35373 10.625 5.84312 10.625 6.34375V7.75H8.375V6.34375C8.375 5.84312 8.22655 5.35373 7.94841 4.93746C7.67027 4.5212 7.27494 4.19677 6.81242 4.00518C6.34989 3.8136 5.84094 3.76347 5.34993 3.86114C4.85891 3.95881 4.40789 4.19989 4.05389 4.55389C3.69989 4.90789 3.45881 5.35891 3.36114 5.84993C3.26347 6.34094 3.3136 6.84989 3.50518 7.31242C3.69677 7.77494 4.0212 8.17027 4.43746 8.44841C4.85373 8.72655 5.34312 8.875 5.84375 8.875H7.25V11.125H5.84375C5.34312 11.125 4.85373 11.2735 4.43746 11.5516C4.0212 11.8297 3.69677 12.2251 3.50518 12.6876C3.3136 13.1501 3.26347 13.6591 3.36114 14.1501C3.45881 14.6411 3.69989 15.0921 4.05389 15.4461C4.40789 15.8001 4.85891 16.0412 5.34993 16.1389C5.84094 16.2365 6.34989 16.1864 6.81242 15.9948C7.27494 15.8032 7.67027 15.4788 7.94841 15.0625C8.22655 14.6463 8.375 14.1569 8.375 13.6563V12.25H10.625V13.6563C10.625 14.1569 10.7735 14.6463 11.0516 15.0625C11.3297 15.4788 11.7251 15.8032 12.1876 15.9948C12.6501 16.1864 13.1591 16.2365 13.6501 16.1389C14.1411 16.0412 14.5921 15.8001 14.9461 15.4461C15.3001 15.0921 15.5412 14.6411 15.6389 14.1501C15.7365 13.6591 15.6864 13.1501 15.4948 12.6876C15.3032 12.2251 14.9788 11.8297 14.5625 11.5516C14.1463 11.2735 13.6569 11.125 13.1563 11.125ZM11.75 6.34375C11.75 6.06562 11.8325 5.79374 11.987 5.56248C12.1415 5.33122 12.3611 5.15098 12.6181 5.04455C12.8751 4.93811 13.1578 4.91026 13.4306 4.96452C13.7034 5.01878 13.954 5.15271 14.1506 5.34938C14.3473 5.54605 14.4812 5.79662 14.5355 6.06941C14.5897 6.34219 14.5619 6.62494 14.4555 6.8819C14.349 7.13886 14.1688 7.35848 13.9375 7.51301C13.7063 7.66753 13.4344 7.75 13.1563 7.75H11.75V6.34375ZM4.4375 6.34375C4.4375 5.97079 4.58566 5.61311 4.84938 5.34938C5.11311 5.08566 5.47079 4.9375 5.84375 4.9375C6.21671 4.9375 6.5744 5.08566 6.83812 5.34938C7.10184 5.61311 7.25 5.97079 7.25 6.34375V7.75H5.84375C5.47079 7.75 5.11311 7.60184 4.84938 7.33812C4.58566 7.0744 4.4375 6.71671 4.4375 6.34375ZM7.25 13.6563C7.25 13.9344 7.16753 14.2063 7.01301 14.4375C6.85848 14.6688 6.63886 14.849 6.3819 14.9555C6.12494 15.0619 5.84219 15.0897 5.56941 15.0355C5.29662 14.9812 5.04605 14.8473 4.84938 14.6506C4.65271 14.454 4.51878 14.2034 4.46452 13.9306C4.41026 13.6578 4.43811 13.3751 4.54455 13.1181C4.65098 12.8611 4.83122 12.6415 5.06248 12.487C5.29374 12.3325 5.56562 12.25 5.84375 12.25H7.25V13.6563ZM8.375 8.875H10.625V11.125H8.375V8.875ZM13.1563 15.0625C12.7833 15.0625 12.4256 14.9143 12.1619 14.6506C11.8982 14.3869 11.75 14.0292 11.75 13.6563V12.25H13.1563C13.5292 12.25 13.8869 12.3982 14.1506 12.6619C14.4143 12.9256 14.5625 13.2833 14.5625 13.6563C14.5625 14.0292 14.4143 14.3869 14.1506 14.6506C13.8869 14.9143 13.5292 15.0625 13.1563 15.0625Z" fill="#A1A1A1"/>
<path d="M23.436 7.236V10.844H26.884V11.428H23.436V15.052H22.812V11.428H19.372V10.844H22.812V7.236H23.436ZM38.027 6.556C37.979 6.64667 37.9097 6.692 37.819 6.692C37.7497 6.692 37.659 6.644 37.547 6.548C37.4403 6.44667 37.2937 6.33733 37.107 6.22C36.9203 6.09733 36.6857 5.98533 36.403 5.884C36.1257 5.78267 35.7817 5.732 35.371 5.732C34.9603 5.732 34.5977 5.79067 34.283 5.908C33.9737 6.02533 33.7123 6.18533 33.499 6.388C33.291 6.59067 33.131 6.82533 33.019 7.092C32.9123 7.35867 32.859 7.63867 32.859 7.932C32.859 8.316 32.939 8.63333 33.099 8.884C33.2643 9.13467 33.4803 9.348 33.747 9.524C34.0137 9.7 34.315 9.84933 34.651 9.972C34.9923 10.0893 35.3417 10.2067 35.699 10.324C36.0563 10.4413 36.403 10.572 36.739 10.716C37.0803 10.8547 37.3843 11.0307 37.651 11.244C37.9177 11.4573 38.131 11.7213 38.291 12.036C38.4563 12.3453 38.539 12.732 38.539 13.196C38.539 13.6707 38.4563 14.1187 38.291 14.54C38.131 14.956 37.8963 15.3187 37.587 15.628C37.2777 15.9373 36.899 16.1827 36.451 16.364C36.003 16.54 35.491 16.628 34.915 16.628C34.1683 16.628 33.5257 16.4973 32.987 16.236C32.4483 15.9693 31.9763 15.6067 31.571 15.148L31.795 14.796C31.859 14.716 31.9337 14.676 32.019 14.676C32.067 14.676 32.1283 14.708 32.203 14.772C32.2777 14.836 32.3683 14.916 32.475 15.012C32.5817 15.1027 32.7097 15.204 32.859 15.316C33.0083 15.4227 33.1817 15.524 33.379 15.62C33.5763 15.7107 33.803 15.788 34.059 15.852C34.315 15.916 34.6057 15.948 34.931 15.948C35.379 15.948 35.779 15.8813 36.131 15.748C36.483 15.6093 36.779 15.4227 37.019 15.188C37.2643 14.9533 37.451 14.676 37.579 14.356C37.707 14.0307 37.771 13.684 37.771 13.316C37.771 12.916 37.6883 12.588 37.523 12.332C37.363 12.0707 37.1497 11.8547 36.883 11.684C36.6163 11.508 36.3123 11.3613 35.971 11.244C35.635 11.1267 35.2883 11.012 34.931 10.9C34.5737 10.788 34.2243 10.6627 33.883 10.524C33.547 10.3853 33.2457 10.2093 32.979 9.996C32.7123 9.77733 32.4963 9.508 32.331 9.188C32.171 8.86267 32.091 8.45733 32.091 7.972C32.091 7.59333 32.163 7.228 32.307 6.876C32.451 6.524 32.6617 6.21467 32.939 5.948C33.2163 5.676 33.5577 5.46 33.963 5.3C34.3737 5.13467 34.8403 5.052 35.363 5.052C35.9497 5.052 36.475 5.14533 36.939 5.332C37.4083 5.51867 37.835 5.804 38.219 6.188L38.027 6.556Z" fill="#A1A1A1"/>
</svg>
