<svg width="21" height="20" viewBox="0 0 21 20" fill="none" xmlns="http://www.w3.org/2000/svg">
<path d="M18.3199 16.95L14.4725 13.1034C15.5876 11.7647 16.1437 10.0475 16.025 8.30919C15.9063 6.57088 15.122 4.94524 13.8353 3.77045C12.5486 2.59565 10.8584 1.96216 9.11653 2.00175C7.37462 2.04134 5.71503 2.75096 4.48299 3.98299C3.25096 5.21503 2.54134 6.87462 2.50175 8.61653C2.46216 10.3584 3.09565 12.0486 4.27045 13.3353C5.44524 14.622 7.07088 15.4063 8.80919 15.525C10.5475 15.6437 12.2647 15.0876 13.6034 13.9725L17.45 17.8199C17.5071 17.877 17.5749 17.9223 17.6496 17.9532C17.7242 17.9841 17.8042 18 17.8849 18C17.9657 18 18.0457 17.9841 18.1203 17.9532C18.1949 17.9223 18.2627 17.877 18.3199 17.8199C18.377 17.7627 18.4223 17.6949 18.4532 17.6203C18.4841 17.5457 18.5 17.4657 18.5 17.3849C18.5 17.3042 18.4841 17.2242 18.4532 17.1496C18.4223 17.0749 18.377 17.0071 18.3199 16.95ZM3.74642 8.77888C3.74642 7.68467 4.07089 6.61502 4.67881 5.70521C5.28672 4.7954 6.15078 4.08629 7.1617 3.66755C8.17263 3.24882 9.28502 3.13925 10.3582 3.35273C11.4314 3.5662 12.4172 4.09311 13.1909 4.86684C13.9647 5.64057 14.4916 6.62636 14.705 7.69955C14.9185 8.77275 14.809 9.88514 14.3902 10.8961C13.9715 11.907 13.2624 12.771 12.3526 13.379C11.4427 13.9869 10.3731 14.3113 9.27888 14.3113C7.81208 14.3097 6.40582 13.7263 5.36864 12.6891C4.33145 11.6519 3.74805 10.2457 3.74642 8.77888Z" fill="#A1A1A1"/>
</svg>
