<svg width="16" height="17" viewBox="0 0 16 17" fill="none" xmlns="http://www.w3.org/2000/svg">
<path d="M3.02006 9.14673C2.92528 9.05841 2.79991 9.01032 2.67038 9.01261C2.54084 9.0149 2.41725 9.06737 2.32565 9.15898C2.23404 9.25059 2.18156 9.37418 2.17928 9.50371C2.17699 9.63325 2.22507 9.75861 2.31339 9.85339L5.31339 12.8534C5.40714 12.947 5.53423 12.9996 5.66673 12.9996C5.79923 12.9996 5.92631 12.947 6.02006 12.8534L13.3534 5.52006C13.4417 5.42528 13.4898 5.29991 13.4875 5.17038C13.4852 5.04084 13.4327 4.91725 13.3411 4.82565C13.2495 4.73404 13.1259 4.68156 12.9964 4.67928C12.8669 4.67699 12.7415 4.72507 12.6467 4.81339L5.66673 11.7934L3.02006 9.14673Z" fill="#181B1B" stroke="#181B1B" stroke-width="0.416667"/>
</svg>
