<svg width="16" height="17" viewBox="0 0 16 17" fill="none" xmlns="http://www.w3.org/2000/svg">
<path d="M8.75 8.5C8.75 8.64834 8.70601 8.79334 8.6236 8.91668C8.54119 9.04001 8.42406 9.13614 8.28701 9.19291C8.14997 9.24968 7.99917 9.26453 7.85368 9.23559C7.7082 9.20665 7.57456 9.13522 7.46967 9.03033C7.36478 8.92544 7.29335 8.7918 7.26441 8.64632C7.23547 8.50083 7.25032 8.35003 7.30709 8.21299C7.36386 8.07594 7.45999 7.95881 7.58332 7.8764C7.70666 7.79399 7.85166 7.75 8 7.75C8.19891 7.75 8.38968 7.82902 8.53033 7.96967C8.67098 8.11032 8.75 8.30109 8.75 8.5ZM8 5C8.14834 5 8.29334 4.95601 8.41668 4.8736C8.54001 4.79119 8.63614 4.67406 8.69291 4.53701C8.74968 4.39997 8.76453 4.24917 8.73559 4.10368C8.70665 3.9582 8.63522 3.82456 8.53033 3.71967C8.42544 3.61478 8.2918 3.54335 8.14632 3.51441C8.00083 3.48547 7.85003 3.50032 7.71299 3.55709C7.57594 3.61386 7.45881 3.70999 7.3764 3.83332C7.29399 3.95666 7.25 4.10166 7.25 4.25C7.25 4.44891 7.32902 4.63968 7.46967 4.78033C7.61032 4.92098 7.80109 5 8 5ZM8 12C7.85166 12 7.70666 12.044 7.58332 12.1264C7.45999 12.2088 7.36386 12.3259 7.30709 12.463C7.25032 12.6 7.23547 12.7508 7.26441 12.8963C7.29335 13.0418 7.36478 13.1754 7.46967 13.2803C7.57456 13.3852 7.7082 13.4566 7.85368 13.4856C7.99917 13.5145 8.14997 13.4997 8.28701 13.4429C8.42406 13.3861 8.54119 13.29 8.6236 13.1667C8.70601 13.0433 8.75 12.8983 8.75 12.75C8.75 12.5511 8.67098 12.3603 8.53033 12.2197C8.38968 12.079 8.19891 12 8 12Z" fill="black"/>
</svg>
