<svg width="20" height="20" viewBox="0 0 20 20" fill="none" xmlns="http://www.w3.org/2000/svg">
<path d="M12.2502 8.50021C12.2502 8.69913 12.1712 8.88989 12.0305 9.03054C11.8899 9.1712 11.6991 9.25021 11.5002 9.25021H9.25021V11.5002C9.25021 11.6991 9.1712 11.8899 9.03054 12.0305C8.88989 12.1712 8.69913 12.2502 8.50021 12.2502C8.3013 12.2502 8.11054 12.1712 7.96988 12.0305C7.82923 11.8899 7.75021 11.6991 7.75021 11.5002V9.25021H5.50021C5.3013 9.25021 5.11054 9.1712 4.96988 9.03054C4.82923 8.88989 4.75021 8.69913 4.75021 8.50021C4.75021 8.3013 4.82923 8.11054 4.96988 7.96988C5.11054 7.82923 5.3013 7.75021 5.50021 7.75021H7.75021V5.50021C7.75021 5.3013 7.82923 5.11054 7.96988 4.96988C8.11054 4.82923 8.3013 4.75021 8.50021 4.75021C8.69913 4.75021 8.88989 4.82923 9.03054 4.96988C9.1712 5.11054 9.25021 5.3013 9.25021 5.50021V7.75021H11.5002C11.6991 7.75021 11.8899 7.82923 12.0305 7.96988C12.1712 8.11054 12.2502 8.3013 12.2502 8.50021ZM19.5308 19.5308C19.4612 19.6006 19.3785 19.6559 19.2874 19.6936C19.1964 19.7314 19.0988 19.7508 19.0002 19.7508C18.9017 19.7508 18.8041 19.7314 18.713 19.6936C18.622 19.6559 18.5392 19.6006 18.4696 19.5308L13.7765 14.8368C12.1431 16.1973 10.048 16.8757 7.92715 16.7309C5.80629 16.5861 3.82289 15.6293 2.38956 14.0593C0.956234 12.4894 0.183327 10.4274 0.231627 8.30212C0.279927 6.17687 1.14571 4.15205 2.64888 2.64888C4.15205 1.14571 6.17687 0.279927 8.30212 0.231627C10.4274 0.183327 12.4894 0.956234 14.0593 2.38956C15.6293 3.82289 16.5861 5.80629 16.7309 7.92715C16.8757 10.048 16.1973 12.1431 14.8368 13.7765L19.5308 18.4696C19.6006 18.5392 19.6559 18.622 19.6936 18.713C19.7314 18.8041 19.7508 18.9017 19.7508 19.0002C19.7508 19.0988 19.7314 19.1964 19.6936 19.2874C19.6559 19.3785 19.6006 19.4612 19.5308 19.5308ZM8.50021 15.2502C9.83524 15.2502 11.1403 14.8543 12.2503 14.1126C13.3603 13.3709 14.2255 12.3167 14.7364 11.0833C15.2473 9.84993 15.381 8.49273 15.1205 7.18335C14.8601 5.87398 14.2172 4.67125 13.2732 3.72724C12.3292 2.78324 11.1264 2.14036 9.81707 1.87991C8.5077 1.61946 7.1505 1.75314 5.9171 2.26403C4.6837 2.77492 3.62949 3.64008 2.88779 4.75011C2.14609 5.86015 1.75021 7.16519 1.75021 8.50021C1.7522 10.2898 2.46399 12.0056 3.72944 13.271C4.99488 14.5364 6.71061 15.2482 8.50021 15.2502Z" fill="white"/>
</svg>
