<svg width="20" height="20" viewBox="0 0 20 20" fill="none" xmlns="http://www.w3.org/2000/svg">
<path d="M11.8747 8.75018C11.8747 8.91594 11.8088 9.07491 11.6916 9.19212C11.5744 9.30933 11.4155 9.37518 11.2497 9.37518H6.24969C6.08393 9.37518 5.92496 9.30933 5.80775 9.19212C5.69054 9.07491 5.62469 8.91594 5.62469 8.75018C5.62469 8.58442 5.69054 8.42545 5.80775 8.30824C5.92496 8.19103 6.08393 8.12518 6.24969 8.12518H11.2497C11.4155 8.12518 11.5744 8.19103 11.6916 8.30824C11.8088 8.42545 11.8747 8.58442 11.8747 8.75018ZM17.9419 17.9424C17.8838 18.0005 17.8149 18.0466 17.739 18.078C17.6632 18.1095 17.5818 18.1257 17.4997 18.1257C17.4176 18.1257 17.3362 18.1095 17.2604 18.078C17.1845 18.0466 17.1155 18.0005 17.0575 17.9424L13.1466 14.0306C11.7854 15.1644 10.0395 15.7298 8.27214 15.6091C6.50475 15.4884 4.85192 14.691 3.65748 13.3828C2.46304 12.0745 1.81895 10.3561 1.8592 8.5851C1.89945 6.81406 2.62094 5.12671 3.87358 3.87407C5.12622 2.62143 6.81357 1.89994 8.58462 1.85969C10.3557 1.81944 12.074 2.46353 13.3823 3.65797C14.6906 4.85241 15.488 6.50524 15.6086 8.27263C15.7293 10.04 15.1639 11.7859 14.0302 13.1471L17.9419 17.058C18 17.116 18.0461 17.185 18.0775 17.2608C18.109 17.3367 18.1252 17.418 18.1252 17.5002C18.1252 17.5823 18.109 17.6636 18.0775 17.7395C18.0461 17.8154 18 17.8843 17.9419 17.9424ZM8.74969 14.3752C9.86221 14.3752 10.9497 14.0453 11.8748 13.4272C12.7998 12.8091 13.5208 11.9306 13.9465 10.9028C14.3723 9.87494 14.4837 8.74394 14.2666 7.6528C14.0496 6.56165 13.5138 5.55937 12.7272 4.7727C11.9405 3.98603 10.9382 3.4503 9.84707 3.23326C8.75593 3.01622 7.62493 3.12761 6.5971 3.55336C5.56926 3.9791 4.69076 4.70007 4.07267 5.6251C3.45459 6.55012 3.12469 7.63766 3.12469 8.75018C3.12634 10.2415 3.71951 11.6713 4.77404 12.7258C5.82858 13.7804 7.25836 14.3735 8.74969 14.3752Z" fill="black"/>
</svg>
