<svg width="18" height="18" viewBox="0 0 18 18" fill="none" xmlns="http://www.w3.org/2000/svg">
<path d="M10.8747 7.75018C10.8747 7.91594 10.8088 8.07491 10.6916 8.19212C10.5744 8.30933 10.4155 8.37518 10.2497 8.37518H5.24969C5.08393 8.37518 4.92496 8.30933 4.80775 8.19212C4.69054 8.07491 4.62469 7.91594 4.62469 7.75018C4.62469 7.58442 4.69054 7.42545 4.80775 7.30824C4.92496 7.19103 5.08393 7.12518 5.24969 7.12518H10.2497C10.4155 7.12518 10.5744 7.19103 10.6916 7.30824C10.8088 7.42545 10.8747 7.58442 10.8747 7.75018ZM16.9419 16.9424C16.8838 17.0005 16.8149 17.0466 16.739 17.078C16.6632 17.1095 16.5818 17.1257 16.4997 17.1257C16.4176 17.1257 16.3362 17.1095 16.2604 17.078C16.1845 17.0466 16.1155 17.0005 16.0575 16.9424L12.1466 13.0306C10.7854 14.1644 9.03953 14.7298 7.27214 14.6091C5.50475 14.4884 3.85192 13.691 2.65748 12.3828C1.46304 11.0745 0.818951 9.35615 0.859201 7.5851C0.899451 5.81406 1.62094 4.12671 2.87358 2.87407C4.12622 1.62143 5.81357 0.899939 7.58462 0.859689C9.35566 0.819439 11.074 1.46353 12.3823 2.65797C13.6906 3.85241 14.488 5.50524 14.6086 7.27263C14.7293 9.04002 14.1639 10.7859 13.0302 12.1471L16.9419 16.058C17 16.116 17.0461 16.185 17.0775 16.2608C17.109 16.3367 17.1252 16.418 17.1252 16.5002C17.1252 16.5823 17.109 16.6636 17.0775 16.7395C17.0461 16.8154 17 16.8843 16.9419 16.9424ZM7.74969 13.3752C8.86221 13.3752 9.94975 13.0453 10.8748 12.4272C11.7998 11.8091 12.5208 10.9306 12.9465 9.90277C13.3723 8.87494 13.4837 7.74394 13.2666 6.6528C13.0496 5.56165 12.5138 4.55937 11.7272 3.7727C10.9405 2.98603 9.93822 2.4503 8.84707 2.23326C7.75593 2.01622 6.62493 2.12761 5.5971 2.55336C4.56926 2.9791 3.69076 3.70007 3.07267 4.6251C2.45459 5.55012 2.12469 6.63766 2.12469 7.75018C2.12634 9.24151 2.71951 10.6713 3.77404 11.7258C4.82858 12.7804 6.25836 13.3735 7.74969 13.3752Z" fill="#CB1E5D"/>
</svg>
